<mxfile host="app.diagrams.net" modified="2022-03-11T09:48:05.276Z" agent="5.0 (Windows NT 10.0; Win64; x64) AppleWebKit/537.36 (KHTML, like Gecko) Chrome/99.0.4844.51 Safari/537.36" etag="k11aGUrsqADAascwMWy1" version="16.6.6" type="github">
  <diagram id="kgpKYQtTHZ0yAKxKKP6v" name="Page-1">
    <mxGraphModel dx="3060" dy="2040" grid="1" gridSize="10" guides="1" tooltips="1" connect="1" arrows="1" fold="1" page="1" pageScale="1" pageWidth="850" pageHeight="1100" math="0" shadow="0">
      <root>
        <mxCell id="0" />
        <mxCell id="1" parent="0" />
        <mxCell id="ZkCUXuL7nQXjn9q8b8uW-62" style="edgeStyle=orthogonalEdgeStyle;rounded=0;orthogonalLoop=1;jettySize=auto;html=0;entryX=1;entryY=0.5;entryDx=0;entryDy=0;" edge="1" parent="1" source="ZkCUXuL7nQXjn9q8b8uW-47" target="ZkCUXuL7nQXjn9q8b8uW-50">
          <mxGeometry relative="1" as="geometry">
            <Array as="points">
              <mxPoint x="560" y="910" />
              <mxPoint x="560" y="1050" />
            </Array>
          </mxGeometry>
        </mxCell>
        <mxCell id="ZkCUXuL7nQXjn9q8b8uW-77" style="edgeStyle=orthogonalEdgeStyle;rounded=0;orthogonalLoop=1;jettySize=auto;html=0;entryX=1;entryY=0.5;entryDx=0;entryDy=0;" edge="1" parent="1" source="ZkCUXuL7nQXjn9q8b8uW-47" target="ZkCUXuL7nQXjn9q8b8uW-28">
          <mxGeometry relative="1" as="geometry" />
        </mxCell>
        <mxCell id="ZkCUXuL7nQXjn9q8b8uW-79" style="edgeStyle=orthogonalEdgeStyle;rounded=0;orthogonalLoop=1;jettySize=auto;html=0;entryX=1;entryY=0.5;entryDx=0;entryDy=0;" edge="1" parent="1" source="ZkCUXuL7nQXjn9q8b8uW-47" target="ZkCUXuL7nQXjn9q8b8uW-1">
          <mxGeometry relative="1" as="geometry">
            <Array as="points">
              <mxPoint x="1590" y="935" />
              <mxPoint x="1590" y="85" />
            </Array>
          </mxGeometry>
        </mxCell>
        <mxCell id="ZkCUXuL7nQXjn9q8b8uW-47" value="Touching Wall&lt;br&gt;&lt;br&gt;&lt;br&gt;&lt;br&gt;&lt;br&gt;&lt;br&gt;&lt;br&gt;&lt;br&gt;&lt;br&gt;&lt;br&gt;&lt;br&gt;&lt;br&gt;&lt;br&gt;" style="rounded=0;whiteSpace=wrap;html=1;" vertex="1" parent="1">
          <mxGeometry x="860" y="820" width="550" height="230" as="geometry" />
        </mxCell>
        <mxCell id="ZkCUXuL7nQXjn9q8b8uW-29" style="edgeStyle=orthogonalEdgeStyle;rounded=0;orthogonalLoop=1;jettySize=auto;html=0;entryX=0.5;entryY=0;entryDx=0;entryDy=0;" edge="1" parent="1" source="ZkCUXuL7nQXjn9q8b8uW-2" target="ZkCUXuL7nQXjn9q8b8uW-28">
          <mxGeometry relative="1" as="geometry" />
        </mxCell>
        <mxCell id="ZkCUXuL7nQXjn9q8b8uW-30" style="edgeStyle=orthogonalEdgeStyle;rounded=0;orthogonalLoop=1;jettySize=auto;html=0;" edge="1" parent="1" source="ZkCUXuL7nQXjn9q8b8uW-2" target="ZkCUXuL7nQXjn9q8b8uW-24">
          <mxGeometry relative="1" as="geometry">
            <mxPoint x="440" y="550" as="targetPoint" />
          </mxGeometry>
        </mxCell>
        <mxCell id="ZkCUXuL7nQXjn9q8b8uW-2" value="&lt;div&gt;&lt;span&gt;Ablilty&lt;/span&gt;&lt;/div&gt;&lt;br&gt;&lt;br&gt;&lt;br&gt;&lt;br&gt;&lt;br&gt;&lt;br&gt;&lt;br&gt;&lt;br&gt;&lt;div&gt;&lt;br&gt;&lt;/div&gt;&lt;div&gt;&lt;br&gt;&lt;/div&gt;&lt;div&gt;&lt;br&gt;&lt;/div&gt;&lt;div&gt;&lt;br&gt;&lt;/div&gt;&lt;div&gt;&lt;br&gt;&lt;/div&gt;&lt;div&gt;&lt;br&gt;&lt;/div&gt;&lt;div&gt;&lt;br&gt;&lt;/div&gt;&lt;div&gt;&lt;br&gt;&lt;/div&gt;&lt;div&gt;&lt;br&gt;&lt;/div&gt;&lt;div&gt;&lt;br&gt;&lt;/div&gt;&lt;div&gt;&lt;br&gt;&lt;/div&gt;&lt;div&gt;&lt;br&gt;&lt;/div&gt;" style="rounded=0;whiteSpace=wrap;html=1;align=left;" vertex="1" parent="1">
          <mxGeometry x="370" y="160" width="650" height="320" as="geometry" />
        </mxCell>
        <mxCell id="ZkCUXuL7nQXjn9q8b8uW-9" value="" style="edgeStyle=orthogonalEdgeStyle;rounded=0;orthogonalLoop=1;jettySize=auto;entryX=0.5;entryY=0;entryDx=0;entryDy=0;align=right;labelPosition=left;verticalLabelPosition=top;verticalAlign=bottom;textDirection=ltr;" edge="1" parent="1" source="ZkCUXuL7nQXjn9q8b8uW-1" target="ZkCUXuL7nQXjn9q8b8uW-3">
          <mxGeometry relative="1" as="geometry">
            <Array as="points">
              <mxPoint x="730" y="180" />
              <mxPoint x="440" y="180" />
            </Array>
          </mxGeometry>
        </mxCell>
        <mxCell id="ZkCUXuL7nQXjn9q8b8uW-10" style="edgeStyle=orthogonalEdgeStyle;rounded=0;orthogonalLoop=1;jettySize=auto;html=1;exitX=0.5;exitY=1;exitDx=0;exitDy=0;entryX=0.5;entryY=0;entryDx=0;entryDy=0;" edge="1" parent="1" source="ZkCUXuL7nQXjn9q8b8uW-1" target="ZkCUXuL7nQXjn9q8b8uW-5">
          <mxGeometry relative="1" as="geometry">
            <Array as="points">
              <mxPoint x="730" y="180" />
              <mxPoint x="600" y="180" />
            </Array>
          </mxGeometry>
        </mxCell>
        <mxCell id="ZkCUXuL7nQXjn9q8b8uW-11" style="edgeStyle=orthogonalEdgeStyle;rounded=0;orthogonalLoop=1;jettySize=auto;html=1;" edge="1" parent="1" source="ZkCUXuL7nQXjn9q8b8uW-1" target="ZkCUXuL7nQXjn9q8b8uW-7">
          <mxGeometry relative="1" as="geometry">
            <Array as="points">
              <mxPoint x="730" y="180" />
              <mxPoint x="770" y="180" />
            </Array>
          </mxGeometry>
        </mxCell>
        <mxCell id="ZkCUXuL7nQXjn9q8b8uW-12" style="edgeStyle=orthogonalEdgeStyle;rounded=0;orthogonalLoop=1;jettySize=auto;html=1;entryX=0.5;entryY=0;entryDx=0;entryDy=0;" edge="1" parent="1" source="ZkCUXuL7nQXjn9q8b8uW-1" target="ZkCUXuL7nQXjn9q8b8uW-8">
          <mxGeometry relative="1" as="geometry">
            <Array as="points">
              <mxPoint x="730" y="180" />
              <mxPoint x="870" y="180" />
            </Array>
          </mxGeometry>
        </mxCell>
        <mxCell id="ZkCUXuL7nQXjn9q8b8uW-13" style="edgeStyle=orthogonalEdgeStyle;rounded=0;orthogonalLoop=1;jettySize=auto;html=1;" edge="1" parent="1" source="ZkCUXuL7nQXjn9q8b8uW-1" target="ZkCUXuL7nQXjn9q8b8uW-6">
          <mxGeometry relative="1" as="geometry">
            <Array as="points">
              <mxPoint x="730" y="180" />
              <mxPoint x="670" y="180" />
            </Array>
          </mxGeometry>
        </mxCell>
        <mxCell id="ZkCUXuL7nQXjn9q8b8uW-14" style="edgeStyle=orthogonalEdgeStyle;rounded=0;orthogonalLoop=1;jettySize=auto;html=1;" edge="1" parent="1" source="ZkCUXuL7nQXjn9q8b8uW-1" target="ZkCUXuL7nQXjn9q8b8uW-4">
          <mxGeometry relative="1" as="geometry">
            <Array as="points">
              <mxPoint x="730" y="180" />
              <mxPoint x="510" y="180" />
            </Array>
          </mxGeometry>
        </mxCell>
        <mxCell id="ZkCUXuL7nQXjn9q8b8uW-1" value="Input&lt;br&gt;Handler" style="rounded=0;whiteSpace=wrap;html=1;" vertex="1" parent="1">
          <mxGeometry x="670" y="60" width="120" height="50" as="geometry" />
        </mxCell>
        <mxCell id="ZkCUXuL7nQXjn9q8b8uW-3" value="Melee Attack State" style="rounded=0;whiteSpace=wrap;html=1;" vertex="1" parent="1">
          <mxGeometry x="380" y="310" width="120" height="40" as="geometry" />
        </mxCell>
        <mxCell id="ZkCUXuL7nQXjn9q8b8uW-4" value="Range Attack State" style="rounded=0;whiteSpace=wrap;html=1;" vertex="1" parent="1">
          <mxGeometry x="450" y="370" width="120" height="40" as="geometry" />
        </mxCell>
        <mxCell id="ZkCUXuL7nQXjn9q8b8uW-5" value="Dodge(roll) State" style="rounded=0;whiteSpace=wrap;html=1;" vertex="1" parent="1">
          <mxGeometry x="540" y="310" width="120" height="40" as="geometry" />
        </mxCell>
        <mxCell id="ZkCUXuL7nQXjn9q8b8uW-6" value="Jump State" style="rounded=0;whiteSpace=wrap;html=1;" vertex="1" parent="1">
          <mxGeometry x="610" y="370" width="120" height="40" as="geometry" />
        </mxCell>
        <mxCell id="ZkCUXuL7nQXjn9q8b8uW-7" value="Wall Jump State" style="rounded=0;whiteSpace=wrap;html=1;" vertex="1" parent="1">
          <mxGeometry x="710" y="310" width="120" height="40" as="geometry" />
        </mxCell>
        <mxCell id="ZkCUXuL7nQXjn9q8b8uW-8" value="Interact State" style="rounded=0;whiteSpace=wrap;html=1;" vertex="1" parent="1">
          <mxGeometry x="810" y="370" width="120" height="40" as="geometry" />
        </mxCell>
        <mxCell id="ZkCUXuL7nQXjn9q8b8uW-15" value="MAttack Input" style="rounded=0;whiteSpace=wrap;html=1;" vertex="1" parent="1">
          <mxGeometry x="415" y="220" width="50" height="30" as="geometry" />
        </mxCell>
        <mxCell id="ZkCUXuL7nQXjn9q8b8uW-18" value="RAttack Input" style="rounded=0;whiteSpace=wrap;html=1;" vertex="1" parent="1">
          <mxGeometry x="470" y="270" width="80" height="20" as="geometry" />
        </mxCell>
        <mxCell id="ZkCUXuL7nQXjn9q8b8uW-20" value="Roll Input" style="rounded=0;whiteSpace=wrap;html=1;" vertex="1" parent="1">
          <mxGeometry x="560" y="220" width="80" height="20" as="geometry" />
        </mxCell>
        <mxCell id="ZkCUXuL7nQXjn9q8b8uW-21" value="Jump Input&lt;br&gt;CanJump" style="rounded=0;whiteSpace=wrap;html=1;" vertex="1" parent="1">
          <mxGeometry x="630" y="260" width="80" height="40" as="geometry" />
        </mxCell>
        <mxCell id="ZkCUXuL7nQXjn9q8b8uW-22" value="Jump Input&lt;br&gt;isTouchingWall" style="rounded=0;whiteSpace=wrap;html=1;" vertex="1" parent="1">
          <mxGeometry x="730" y="230" width="90" height="40" as="geometry" />
        </mxCell>
        <mxCell id="ZkCUXuL7nQXjn9q8b8uW-23" value="Interact Input" style="rounded=0;whiteSpace=wrap;html=1;" vertex="1" parent="1">
          <mxGeometry x="825" y="280" width="90" height="20" as="geometry" />
        </mxCell>
        <mxCell id="ZkCUXuL7nQXjn9q8b8uW-31" style="edgeStyle=orthogonalEdgeStyle;rounded=0;orthogonalLoop=1;jettySize=auto;html=0;entryX=0.5;entryY=0;entryDx=0;entryDy=0;exitX=0.576;exitY=0;exitDx=0;exitDy=0;startArrow=none;exitPerimeter=0;" edge="1" parent="1" source="ZkCUXuL7nQXjn9q8b8uW-32" target="ZkCUXuL7nQXjn9q8b8uW-1">
          <mxGeometry relative="1" as="geometry">
            <Array as="points">
              <mxPoint y="40" />
              <mxPoint x="730" y="40" />
            </Array>
          </mxGeometry>
        </mxCell>
        <mxCell id="ZkCUXuL7nQXjn9q8b8uW-45" style="edgeStyle=orthogonalEdgeStyle;rounded=0;orthogonalLoop=1;jettySize=auto;html=0;entryX=0;entryY=0.5;entryDx=0;entryDy=0;" edge="1" parent="1" source="ZkCUXuL7nQXjn9q8b8uW-24" target="ZkCUXuL7nQXjn9q8b8uW-28">
          <mxGeometry relative="1" as="geometry" />
        </mxCell>
        <mxCell id="ZkCUXuL7nQXjn9q8b8uW-69" style="edgeStyle=orthogonalEdgeStyle;rounded=0;orthogonalLoop=1;jettySize=auto;html=0;entryX=0;entryY=0.5;entryDx=0;entryDy=0;exitX=0.5;exitY=1;exitDx=0;exitDy=0;" edge="1" parent="1" source="ZkCUXuL7nQXjn9q8b8uW-24" target="ZkCUXuL7nQXjn9q8b8uW-48">
          <mxGeometry relative="1" as="geometry">
            <Array as="points">
              <mxPoint x="175" y="930" />
              <mxPoint x="530" y="930" />
              <mxPoint x="530" y="840" />
              <mxPoint x="820" y="840" />
              <mxPoint x="820" y="940" />
            </Array>
          </mxGeometry>
        </mxCell>
        <mxCell id="ZkCUXuL7nQXjn9q8b8uW-24" value="&lt;div&gt;Grounded&lt;/div&gt;&lt;div&gt;&lt;br&gt;&lt;/div&gt;&lt;div&gt;&lt;br&gt;&lt;/div&gt;&lt;div&gt;&lt;br&gt;&lt;/div&gt;&lt;div&gt;&lt;br&gt;&lt;/div&gt;&lt;div&gt;&lt;br&gt;&lt;/div&gt;&lt;div&gt;&lt;br&gt;&lt;/div&gt;&lt;div&gt;&lt;br&gt;&lt;/div&gt;&lt;div&gt;&lt;br&gt;&lt;/div&gt;&lt;div&gt;&lt;br&gt;&lt;/div&gt;&lt;div&gt;&lt;br&gt;&lt;/div&gt;&lt;div&gt;&lt;br&gt;&lt;/div&gt;&lt;div&gt;&lt;br&gt;&lt;/div&gt;&lt;div&gt;&lt;br&gt;&lt;/div&gt;&lt;div&gt;&lt;br&gt;&lt;/div&gt;&lt;div&gt;&lt;br&gt;&lt;/div&gt;&lt;div&gt;&lt;br&gt;&lt;/div&gt;&lt;div&gt;&lt;br&gt;&lt;/div&gt;&lt;div&gt;&lt;br&gt;&lt;/div&gt;&lt;div&gt;&lt;br&gt;&lt;/div&gt;&lt;div&gt;&lt;br&gt;&lt;/div&gt;" style="rounded=0;whiteSpace=wrap;html=1;align=left;" vertex="1" parent="1">
          <mxGeometry x="-150" y="590" width="650" height="320" as="geometry" />
        </mxCell>
        <mxCell id="ZkCUXuL7nQXjn9q8b8uW-36" style="edgeStyle=orthogonalEdgeStyle;rounded=0;orthogonalLoop=1;jettySize=auto;html=0;entryX=0;entryY=0.75;entryDx=0;entryDy=0;startArrow=none;" edge="1" parent="1" source="ZkCUXuL7nQXjn9q8b8uW-39" target="ZkCUXuL7nQXjn9q8b8uW-26">
          <mxGeometry relative="1" as="geometry">
            <Array as="points">
              <mxPoint x="130" y="790" />
              <mxPoint x="130" y="790" />
            </Array>
          </mxGeometry>
        </mxCell>
        <mxCell id="ZkCUXuL7nQXjn9q8b8uW-25" value="Move State" style="rounded=0;whiteSpace=wrap;html=1;" vertex="1" parent="1">
          <mxGeometry x="-30" y="760" width="120" height="40" as="geometry" />
        </mxCell>
        <mxCell id="ZkCUXuL7nQXjn9q8b8uW-35" style="edgeStyle=orthogonalEdgeStyle;rounded=0;orthogonalLoop=1;jettySize=auto;html=0;exitX=0;exitY=0.25;exitDx=0;exitDy=0;startArrow=none;" edge="1" parent="1" source="ZkCUXuL7nQXjn9q8b8uW-37">
          <mxGeometry relative="1" as="geometry">
            <mxPoint x="90" y="770" as="targetPoint" />
            <Array as="points">
              <mxPoint x="130" y="770" />
            </Array>
          </mxGeometry>
        </mxCell>
        <mxCell id="ZkCUXuL7nQXjn9q8b8uW-26" value="Idle State" style="rounded=0;whiteSpace=wrap;html=1;" vertex="1" parent="1">
          <mxGeometry x="240" y="760" width="120" height="40" as="geometry" />
        </mxCell>
        <mxCell id="ZkCUXuL7nQXjn9q8b8uW-41" style="edgeStyle=orthogonalEdgeStyle;rounded=0;orthogonalLoop=1;jettySize=auto;html=0;entryX=0.5;entryY=0;entryDx=0;entryDy=0;" edge="1" parent="1" source="ZkCUXuL7nQXjn9q8b8uW-27" target="ZkCUXuL7nQXjn9q8b8uW-25">
          <mxGeometry relative="1" as="geometry" />
        </mxCell>
        <mxCell id="ZkCUXuL7nQXjn9q8b8uW-42" style="edgeStyle=orthogonalEdgeStyle;rounded=0;orthogonalLoop=1;jettySize=auto;html=0;" edge="1" parent="1" source="ZkCUXuL7nQXjn9q8b8uW-27" target="ZkCUXuL7nQXjn9q8b8uW-26">
          <mxGeometry relative="1" as="geometry" />
        </mxCell>
        <mxCell id="ZkCUXuL7nQXjn9q8b8uW-27" value="Land State" style="rounded=0;whiteSpace=wrap;html=1;" vertex="1" parent="1">
          <mxGeometry x="110" y="630" width="120" height="40" as="geometry" />
        </mxCell>
        <mxCell id="ZkCUXuL7nQXjn9q8b8uW-51" style="edgeStyle=orthogonalEdgeStyle;rounded=0;orthogonalLoop=1;jettySize=auto;html=0;" edge="1" parent="1" source="ZkCUXuL7nQXjn9q8b8uW-28" target="ZkCUXuL7nQXjn9q8b8uW-48">
          <mxGeometry relative="1" as="geometry" />
        </mxCell>
        <mxCell id="ZkCUXuL7nQXjn9q8b8uW-52" style="edgeStyle=orthogonalEdgeStyle;rounded=0;orthogonalLoop=1;jettySize=auto;html=0;startArrow=none;" edge="1" parent="1" source="ZkCUXuL7nQXjn9q8b8uW-53" target="ZkCUXuL7nQXjn9q8b8uW-49">
          <mxGeometry relative="1" as="geometry">
            <mxPoint x="990" y="780" as="sourcePoint" />
          </mxGeometry>
        </mxCell>
        <mxCell id="ZkCUXuL7nQXjn9q8b8uW-75" style="edgeStyle=orthogonalEdgeStyle;rounded=0;orthogonalLoop=1;jettySize=auto;html=0;entryX=0.75;entryY=0;entryDx=0;entryDy=0;" edge="1" parent="1" source="ZkCUXuL7nQXjn9q8b8uW-28" target="ZkCUXuL7nQXjn9q8b8uW-50">
          <mxGeometry relative="1" as="geometry">
            <Array as="points">
              <mxPoint x="960" y="760" />
              <mxPoint x="680" y="760" />
              <mxPoint x="680" y="1010" />
              <mxPoint x="130" y="1010" />
            </Array>
          </mxGeometry>
        </mxCell>
        <mxCell id="ZkCUXuL7nQXjn9q8b8uW-80" style="edgeStyle=orthogonalEdgeStyle;rounded=0;orthogonalLoop=1;jettySize=auto;html=0;" edge="1" parent="1" source="ZkCUXuL7nQXjn9q8b8uW-28">
          <mxGeometry relative="1" as="geometry">
            <mxPoint x="1590" y="350" as="targetPoint" />
            <Array as="points">
              <mxPoint x="1020" y="660" />
              <mxPoint x="1590" y="660" />
              <mxPoint x="1590" y="450" />
            </Array>
          </mxGeometry>
        </mxCell>
        <mxCell id="ZkCUXuL7nQXjn9q8b8uW-28" value="In Air State" style="rounded=0;whiteSpace=wrap;html=1;" vertex="1" parent="1">
          <mxGeometry x="930" y="690" width="120" height="40" as="geometry" />
        </mxCell>
        <mxCell id="ZkCUXuL7nQXjn9q8b8uW-32" value="Ability Input" style="rounded=0;whiteSpace=wrap;html=1;" vertex="1" parent="1">
          <mxGeometry x="-40" y="220" width="70" height="30" as="geometry" />
        </mxCell>
        <mxCell id="ZkCUXuL7nQXjn9q8b8uW-33" value="" style="edgeStyle=orthogonalEdgeStyle;rounded=0;orthogonalLoop=1;jettySize=auto;html=0;entryX=0.5;entryY=1;entryDx=0;entryDy=0;exitX=0.234;exitY=-0.002;exitDx=0;exitDy=0;endArrow=none;exitPerimeter=0;" edge="1" parent="1" source="ZkCUXuL7nQXjn9q8b8uW-24" target="ZkCUXuL7nQXjn9q8b8uW-32">
          <mxGeometry relative="1" as="geometry">
            <mxPoint x="12.5" y="589.9999999999998" as="sourcePoint" />
            <mxPoint x="730" y="60" as="targetPoint" />
            <Array as="points">
              <mxPoint y="589" />
              <mxPoint y="250" />
            </Array>
          </mxGeometry>
        </mxCell>
        <mxCell id="ZkCUXuL7nQXjn9q8b8uW-37" value="xinput" style="rounded=0;whiteSpace=wrap;html=1;" vertex="1" parent="1">
          <mxGeometry x="130" y="760" width="60" height="20" as="geometry" />
        </mxCell>
        <mxCell id="ZkCUXuL7nQXjn9q8b8uW-38" value="" style="edgeStyle=orthogonalEdgeStyle;rounded=0;orthogonalLoop=1;jettySize=auto;html=0;exitX=0;exitY=0.25;exitDx=0;exitDy=0;endArrow=none;" edge="1" parent="1" source="ZkCUXuL7nQXjn9q8b8uW-26" target="ZkCUXuL7nQXjn9q8b8uW-37">
          <mxGeometry relative="1" as="geometry">
            <mxPoint x="240" y="770" as="sourcePoint" />
            <mxPoint x="90" y="770" as="targetPoint" />
          </mxGeometry>
        </mxCell>
        <mxCell id="ZkCUXuL7nQXjn9q8b8uW-39" value="!xinput" style="rounded=0;whiteSpace=wrap;html=1;" vertex="1" parent="1">
          <mxGeometry x="145" y="780" width="60" height="20" as="geometry" />
        </mxCell>
        <mxCell id="ZkCUXuL7nQXjn9q8b8uW-40" value="" style="edgeStyle=orthogonalEdgeStyle;rounded=0;orthogonalLoop=1;jettySize=auto;html=0;endArrow=none;" edge="1" parent="1" source="ZkCUXuL7nQXjn9q8b8uW-25">
          <mxGeometry relative="1" as="geometry">
            <mxPoint x="90" y="790.0222222222224" as="sourcePoint" />
            <mxPoint x="140" y="790" as="targetPoint" />
            <Array as="points">
              <mxPoint x="100" y="790" />
              <mxPoint x="100" y="790" />
            </Array>
          </mxGeometry>
        </mxCell>
        <mxCell id="ZkCUXuL7nQXjn9q8b8uW-43" value="xinput" style="rounded=0;whiteSpace=wrap;html=1;" vertex="1" parent="1">
          <mxGeometry x="5" y="680" width="50" height="20" as="geometry" />
        </mxCell>
        <mxCell id="ZkCUXuL7nQXjn9q8b8uW-44" value="!xinput" style="rounded=0;whiteSpace=wrap;html=1;" vertex="1" parent="1">
          <mxGeometry x="270" y="680" width="60" height="20" as="geometry" />
        </mxCell>
        <mxCell id="ZkCUXuL7nQXjn9q8b8uW-46" value="!Grounddetected" style="rounded=0;whiteSpace=wrap;html=1;" vertex="1" parent="1">
          <mxGeometry x="550" y="710" width="100" height="20" as="geometry" />
        </mxCell>
        <mxCell id="ZkCUXuL7nQXjn9q8b8uW-56" style="edgeStyle=orthogonalEdgeStyle;rounded=0;orthogonalLoop=1;jettySize=auto;html=0;startArrow=none;" edge="1" parent="1" source="ZkCUXuL7nQXjn9q8b8uW-58">
          <mxGeometry relative="1" as="geometry">
            <mxPoint x="1080" y="930" as="sourcePoint" />
            <mxPoint x="1200" y="930" as="targetPoint" />
          </mxGeometry>
        </mxCell>
        <mxCell id="ZkCUXuL7nQXjn9q8b8uW-48" value="Wall Grab State" style="rounded=0;whiteSpace=wrap;html=1;" vertex="1" parent="1">
          <mxGeometry x="960" y="920" width="120" height="40" as="geometry" />
        </mxCell>
        <mxCell id="ZkCUXuL7nQXjn9q8b8uW-57" style="edgeStyle=orthogonalEdgeStyle;rounded=0;orthogonalLoop=1;jettySize=auto;html=0;exitX=0;exitY=0.75;exitDx=0;exitDy=0;entryX=1;entryY=0.75;entryDx=0;entryDy=0;startArrow=none;" edge="1" parent="1" source="ZkCUXuL7nQXjn9q8b8uW-60" target="ZkCUXuL7nQXjn9q8b8uW-48">
          <mxGeometry relative="1" as="geometry">
            <Array as="points">
              <mxPoint x="1110" y="950" />
            </Array>
          </mxGeometry>
        </mxCell>
        <mxCell id="ZkCUXuL7nQXjn9q8b8uW-49" value="Wall Slide State" style="rounded=0;whiteSpace=wrap;html=1;" vertex="1" parent="1">
          <mxGeometry x="1200" y="920" width="120" height="40" as="geometry" />
        </mxCell>
        <mxCell id="ZkCUXuL7nQXjn9q8b8uW-64" style="edgeStyle=orthogonalEdgeStyle;rounded=0;orthogonalLoop=1;jettySize=auto;html=0;startArrow=none;" edge="1" parent="1" target="ZkCUXuL7nQXjn9q8b8uW-26">
          <mxGeometry relative="1" as="geometry">
            <mxPoint x="300" y="950" as="sourcePoint" />
            <Array as="points">
              <mxPoint x="300" y="930" />
            </Array>
          </mxGeometry>
        </mxCell>
        <mxCell id="ZkCUXuL7nQXjn9q8b8uW-50" value="Ledge Climb" style="rounded=0;whiteSpace=wrap;html=1;" vertex="1" parent="1">
          <mxGeometry x="40" y="1030" width="120" height="40" as="geometry" />
        </mxCell>
        <mxCell id="ZkCUXuL7nQXjn9q8b8uW-53" value="isTouchingWall&lt;br&gt;!grabInput" style="rounded=0;whiteSpace=wrap;html=1;" vertex="1" parent="1">
          <mxGeometry x="1210" y="760" width="100" height="40" as="geometry" />
        </mxCell>
        <mxCell id="ZkCUXuL7nQXjn9q8b8uW-54" value="" style="edgeStyle=orthogonalEdgeStyle;rounded=0;orthogonalLoop=1;jettySize=auto;html=0;endArrow=none;" edge="1" parent="1" target="ZkCUXuL7nQXjn9q8b8uW-53">
          <mxGeometry relative="1" as="geometry">
            <mxPoint x="990" y="780" as="sourcePoint" />
            <mxPoint x="1260.0526315789475" y="920" as="targetPoint" />
          </mxGeometry>
        </mxCell>
        <mxCell id="ZkCUXuL7nQXjn9q8b8uW-55" value="isTouchingWall&lt;br&gt;grabInput" style="rounded=0;whiteSpace=wrap;html=1;" vertex="1" parent="1">
          <mxGeometry x="970" y="850" width="100" height="40" as="geometry" />
        </mxCell>
        <mxCell id="ZkCUXuL7nQXjn9q8b8uW-58" value="grabInput" style="rounded=0;whiteSpace=wrap;html=1;" vertex="1" parent="1">
          <mxGeometry x="1110" y="920" width="60" height="20" as="geometry" />
        </mxCell>
        <mxCell id="ZkCUXuL7nQXjn9q8b8uW-59" value="" style="edgeStyle=orthogonalEdgeStyle;rounded=0;orthogonalLoop=1;jettySize=auto;html=0;endArrow=none;" edge="1" parent="1" target="ZkCUXuL7nQXjn9q8b8uW-58">
          <mxGeometry relative="1" as="geometry">
            <mxPoint x="1080" y="930" as="sourcePoint" />
            <mxPoint x="1200" y="930" as="targetPoint" />
          </mxGeometry>
        </mxCell>
        <mxCell id="ZkCUXuL7nQXjn9q8b8uW-60" value="!grabInput" style="rounded=0;whiteSpace=wrap;html=1;" vertex="1" parent="1">
          <mxGeometry x="1110" y="940" width="60" height="20" as="geometry" />
        </mxCell>
        <mxCell id="ZkCUXuL7nQXjn9q8b8uW-61" value="" style="edgeStyle=orthogonalEdgeStyle;rounded=0;orthogonalLoop=1;jettySize=auto;html=0;exitX=0;exitY=0.75;exitDx=0;exitDy=0;entryX=1;entryY=0.75;entryDx=0;entryDy=0;endArrow=none;" edge="1" parent="1" source="ZkCUXuL7nQXjn9q8b8uW-49" target="ZkCUXuL7nQXjn9q8b8uW-60">
          <mxGeometry relative="1" as="geometry">
            <mxPoint x="1200" y="950" as="sourcePoint" />
            <mxPoint x="1080" y="950" as="targetPoint" />
          </mxGeometry>
        </mxCell>
        <mxCell id="ZkCUXuL7nQXjn9q8b8uW-63" value="Ledge Detected" style="rounded=0;whiteSpace=wrap;html=1;" vertex="1" parent="1">
          <mxGeometry x="530" y="970" width="60" height="30" as="geometry" />
        </mxCell>
        <mxCell id="ZkCUXuL7nQXjn9q8b8uW-65" value="LedgeClimbDone" style="rounded=0;whiteSpace=wrap;html=1;" vertex="1" parent="1">
          <mxGeometry x="230" y="940" width="130" height="20" as="geometry" />
        </mxCell>
        <mxCell id="ZkCUXuL7nQXjn9q8b8uW-66" value="" style="edgeStyle=orthogonalEdgeStyle;rounded=0;orthogonalLoop=1;jettySize=auto;html=0;exitX=0.5;exitY=0;exitDx=0;exitDy=0;endArrow=none;" edge="1" parent="1" source="ZkCUXuL7nQXjn9q8b8uW-50" target="ZkCUXuL7nQXjn9q8b8uW-65">
          <mxGeometry relative="1" as="geometry">
            <mxPoint x="100" y="1030" as="sourcePoint" />
            <mxPoint x="300" y="800" as="targetPoint" />
            <Array as="points">
              <mxPoint x="100" y="950" />
              <mxPoint x="300" y="950" />
              <mxPoint x="300" y="940" />
            </Array>
          </mxGeometry>
        </mxCell>
        <mxCell id="ZkCUXuL7nQXjn9q8b8uW-70" value="isTouchingWall&lt;br&gt;grabInput" style="rounded=0;whiteSpace=wrap;html=1;" vertex="1" parent="1">
          <mxGeometry x="510" y="820" width="100" height="40" as="geometry" />
        </mxCell>
        <mxCell id="ZkCUXuL7nQXjn9q8b8uW-76" value="Ledge Detected" style="rounded=0;whiteSpace=wrap;html=1;" vertex="1" parent="1">
          <mxGeometry x="660" y="990" width="60" height="30" as="geometry" />
        </mxCell>
        <mxCell id="ZkCUXuL7nQXjn9q8b8uW-78" value="!isTouchingWall&lt;br&gt;|| Jumpinput&lt;br&gt;&amp;amp;&amp;amp; !isGrounded" style="rounded=0;whiteSpace=wrap;html=1;" vertex="1" parent="1">
          <mxGeometry x="1100" y="700" width="100" height="40" as="geometry" />
        </mxCell>
        <mxCell id="ZkCUXuL7nQXjn9q8b8uW-81" value="Ability input" style="rounded=0;whiteSpace=wrap;html=1;" vertex="1" parent="1">
          <mxGeometry x="1540" y="340" width="100" height="20" as="geometry" />
        </mxCell>
      </root>
    </mxGraphModel>
  </diagram>
</mxfile>
